<svg width="287" height="244" viewBox="0 0 287 244" fill="none" xmlns="http://www.w3.org/2000/svg">
<path opacity="0.8" d="M143.766 2.03615L143.5 1.96249L143.234 2.03615L56.8203 25.9249L56.547 26.0005L56.354 26.2083L1.53535 85.2375L1.26057 85.5334L1.2683 85.9371L2.68062 159.73L2.68757 160.094L2.92606 160.368L55.4595 220.738L55.6665 220.976L55.9724 221.052L143.259 242.77L143.5 242.83L143.741 242.77L231.028 221.052L231.334 220.976L231.54 220.738L284.074 160.368L284.312 160.094L284.319 159.73L285.732 85.9371L285.739 85.5334L285.465 85.2375L230.646 26.2083L230.453 26.0005L230.18 25.9249L143.766 2.03615Z" fill="#6E2F9E" fill-opacity="0.39" stroke="#BA7BF9" stroke-width="2"/>
</svg>
